<svg width="35" height="31" viewBox="0 0 35 31" fill="none" xmlns="http://www.w3.org/2000/svg">
<path d="M31.3784 4.07856C30.5741 3.27389 29.6191 2.63556 28.568 2.20005C27.517 1.76455 26.3904 1.54039 25.2527 1.54039C24.115 1.54039 22.9884 1.76455 21.9374 2.20005C20.8863 2.63556 19.9313 3.27389 19.127 4.07856L17.4578 5.74776L15.7886 4.07856C14.164 2.45394 11.9606 1.54123 9.66299 1.54123C7.36542 1.54123 5.16196 2.45394 3.53733 4.07856C1.91271 5.70319 1 7.90665 1 10.2042C1 12.5018 1.91271 14.7053 3.53733 16.3299L5.20653 17.9991L17.4578 30.2504L29.7092 17.9991L31.3784 16.3299C32.183 15.5256 32.8214 14.5706 33.2569 13.5196C33.6924 12.4685 33.9165 11.3419 33.9165 10.2042C33.9165 9.0665 33.6924 7.93994 33.2569 6.88888C32.8214 5.83782 32.183 4.88286 31.3784 4.07856Z" stroke="white" stroke-width="1.5" stroke-linecap="round" stroke-linejoin="round"/>
</svg>
