<?xml version="1.0" encoding="UTF-8"?><svg id="Layer_1" xmlns="http://www.w3.org/2000/svg" viewBox="0 0 605.94 539.87"><defs><style>.cls-1{font-size:20.55px;}.cls-1,.cls-2,.cls-3,.cls-4,.cls-5,.cls-6,.cls-7,.cls-8,.cls-9{isolation:isolate;}.cls-1,.cls-2,.cls-4,.cls-5,.cls-6,.cls-9{font-family:HelveticaNeue-Light, 'Helvetica Neue';font-weight:300;}.cls-1,.cls-2,.cls-4,.cls-6,.cls-9{fill:#be8171;}.cls-2,.cls-4,.cls-9{font-size:20.55px;}.cls-3,.cls-5,.cls-8{font-size:50.85px;}.cls-3,.cls-5,.cls-8,.cls-10{fill:#4e6771;}.cls-3,.cls-8{font-family:HelveticaNeue-Medium, 'Helvetica Neue';font-weight:500;}.cls-4{letter-spacing:.02em;}.cls-6{font-size:27.63px;}.cls-8{letter-spacing:-.02em;}.cls-9{letter-spacing:-.02em;}.cls-11{fill:#60777f;}.cls-11,.cls-12,.cls-10,.cls-13,.cls-14,.cls-15{stroke-width:0px;}.cls-12{fill:#82959c;}.cls-13{fill:#71858d;}.cls-14{fill:#94a4aa;}.cls-15{fill:#a6b3b9;}</style></defs><g class="cls-7"><text class="cls-6" transform="translate(62.73 472.04)"><tspan x="0" y="0">0</tspan></text></g><g class="cls-7"><text class="cls-6" transform="translate(47.36 382.36)"><tspan x="0" y="0">20</tspan></text></g><g class="cls-7"><text class="cls-6" transform="translate(47.36 292.69)"><tspan x="0" y="0">40</tspan></text></g><g class="cls-7"><text class="cls-6" transform="translate(47.36 203.02)"><tspan x="0" y="0">60</tspan></text></g><g class="cls-7"><text class="cls-6" transform="translate(47.36 113.35)"><tspan x="0" y="0">80</tspan></text></g><g class="cls-7"><text class="cls-6" transform="translate(32 23.68)"><tspan x="0" y="0">100</tspan></text></g><rect class="cls-10" x="147.9" y="39" width="37.18" height="421.73" rx="18.58" ry="18.58"/><rect class="cls-11" x="223.8" y="295.2" width="37.18" height="165.53" rx="18.58" ry="18.58"/><rect class="cls-13" x="299.71" y="275.52" width="37.18" height="185.22" rx="18.58" ry="18.58"/><rect class="cls-12" x="375.61" y="249.87" width="37.18" height="210.87" rx="18.58" ry="18.58"/><rect class="cls-14" x="451.52" y="310.66" width="37.18" height="150.09" rx="18.58" ry="18.58"/><rect class="cls-15" x="527.42" y="202.87" width="37.18" height="257.87" rx="18.58" ry="18.58"/><g class="cls-7"><text class="cls-2" transform="translate(143.66 517.18) rotate(-25.67)"><tspan x="0" y="0">pop</tspan></text></g><g class="cls-7"><text class="cls-2" transform="translate(219.94 517.18) rotate(-25.67)"><tspan x="0" y="0">other</tspan></text></g><g class="cls-7"><text class="cls-2" transform="translate(284.49 517.18) rotate(-25.67)"><tspan x="0" y="0">alte</tspan></text><text class="cls-4" transform="translate(312.62 503.66) rotate(-25.67)"><tspan x="0" y="0">r</tspan></text><text class="cls-2" transform="translate(318.79 500.69) rotate(-25.67)"><tspan x="0" y="0">native</tspan></text><text class="cls-9" transform="translate(292.68 534.22) rotate(-25.67)"><tspan x="0" y="0">r</tspan></text><text class="cls-2" transform="translate(298.17 531.58) rotate(-25.67)"><tspan x="0" y="0">ock</tspan></text></g><g class="cls-7"><text class="cls-2" transform="translate(363.17 517.18) rotate(-25.67)"><tspan x="0" y="0">country</tspan></text></g><g class="cls-7"><text class="cls-9" transform="translate(448.85 517.17) rotate(-25.67)"><tspan x="0" y="0">r</tspan></text><text class="cls-2" transform="translate(454.35 514.53) rotate(-25.67)"><tspan x="0" y="0">ock</tspan></text></g><g class="cls-7"><text class="cls-2" transform="translate(522.27 517.18) rotate(-25.67)"><tspan x="0" y="0">alte</tspan></text><text class="cls-4" transform="translate(550.4 503.66) rotate(-25.67)"><tspan x="0" y="0">r</tspan></text><text class="cls-2" transform="translate(556.57 500.69) rotate(-25.67)"><tspan x="0" y="0">native</tspan></text></g><g class="cls-7"><text class="cls-1" transform="translate(17.61 275.51) rotate(-90)"><tspan x="0" y="0">minutes</tspan></text></g><g class="cls-7"><text class="cls-3" transform="translate(225.5 54.83)"><tspan x="0" y="0">your top gen</tspan></text><text class="cls-8" transform="translate(523.22 54.83)"><tspan x="0" y="0">r</tspan></text><text class="cls-3" transform="translate(540.21 54.83)"><tspan x="0" y="0">es</tspan></text><text class="cls-5" transform="translate(225.5 115.86)"><tspan x="0" y="0">this month</tspan></text></g></svg>