<svg width="35" height="35" viewBox="0 0 35 35" fill="none" xmlns="http://www.w3.org/2000/svg">
<path d="M21.1873 7.03105C22.7113 7.32839 24.1119 8.07373 25.2099 9.17167C26.3078 10.2696 27.0531 11.6702 27.3505 13.1942M21.1873 0.789856C24.3536 1.1416 27.3062 2.55951 29.5602 4.81075C31.8143 7.062 33.2359 10.0128 33.5917 13.1786M32.0314 25.6298V30.3107C32.0331 30.7452 31.9441 31.1754 31.77 31.5735C31.596 31.9717 31.3406 32.3291 31.0204 32.6228C30.7002 32.9166 30.3222 33.1403 29.9105 33.2795C29.4989 33.4187 29.0627 33.4704 28.6299 33.4313C23.8286 32.9096 19.2167 31.2689 15.1646 28.6412C11.3946 26.2456 8.19836 23.0493 5.80278 19.2794C3.16584 15.2089 1.52482 10.5745 1.01266 5.7516C0.973673 5.32013 1.02495 4.88526 1.16323 4.47469C1.30152 4.06412 1.52377 3.68684 1.81585 3.36688C2.10793 3.04691 2.46344 2.79126 2.85973 2.61622C3.25602 2.44117 3.68443 2.35056 4.11766 2.35015H8.79855C9.55577 2.3427 10.2899 2.61085 10.864 3.10461C11.4382 3.59837 11.8132 4.28406 11.9191 5.03387C12.1167 6.53186 12.4831 8.00269 13.0114 9.4183C13.2213 9.97677 13.2667 10.5837 13.1423 11.1672C13.0178 11.7507 12.7287 12.2863 12.3092 12.7105L10.3276 14.6921C12.5488 18.5984 15.7832 21.8327 19.6894 24.0539L21.671 22.0723C22.0952 21.6528 22.6308 21.3637 23.2143 21.2393C23.7978 21.1148 24.4048 21.1603 24.9632 21.3702C26.3788 21.8984 27.8497 22.2648 29.3477 22.4624C30.1056 22.5693 30.7978 22.9511 31.2926 23.5351C31.7875 24.1191 32.0504 24.8646 32.0314 25.6298Z" stroke="white" stroke-width="1.5" stroke-linecap="round" stroke-linejoin="round"/>
</svg>
