<svg width="31" height="32" viewBox="0 0 31 32" fill="none" xmlns="http://www.w3.org/2000/svg">
<path d="M15.4415 19.8241C17.6168 19.8241 19.3801 18.0607 19.3801 15.8855C19.3801 13.7102 17.6168 11.9469 15.4415 11.9469C13.2663 11.9469 11.5029 13.7102 11.5029 15.8855C11.5029 18.0607 13.2663 19.8241 15.4415 19.8241Z" stroke="white" stroke-width="1.5" stroke-linecap="round" stroke-linejoin="round"/>
<path d="M25.1568 19.8241C24.982 20.2201 24.9299 20.6593 25.0071 21.0852C25.0843 21.5111 25.2873 21.9041 25.59 22.2135L25.6688 22.2923C25.9129 22.5361 26.1066 22.8257 26.2387 23.1445C26.3709 23.4632 26.4389 23.8049 26.4389 24.15C26.4389 24.495 26.3709 24.8367 26.2387 25.1555C26.1066 25.4742 25.9129 25.7638 25.6688 26.0077C25.4249 26.2518 25.1353 26.4455 24.8166 26.5776C24.4978 26.7098 24.1561 26.7778 23.8111 26.7778C23.466 26.7778 23.1243 26.7098 22.8056 26.5776C22.4868 26.4455 22.1972 26.2518 21.9534 26.0077L21.8746 25.9289C21.5652 25.6263 21.1722 25.4232 20.7463 25.346C20.3204 25.2688 19.8812 25.3209 19.4852 25.4957C19.0969 25.6621 18.7657 25.9384 18.5324 26.2907C18.2992 26.6429 18.174 27.0556 18.1723 27.4781V27.7013C18.1723 28.3977 17.8957 29.0655 17.4032 29.558C16.9108 30.0504 16.243 30.327 15.5466 30.327C14.8502 30.327 14.1823 30.0504 13.6899 29.558C13.1975 29.0655 12.9208 28.3977 12.9208 27.7013V27.5831C12.9107 27.1486 12.77 26.7271 12.5171 26.3736C12.2643 26.02 11.9109 25.7507 11.5029 25.6007C11.107 25.4259 10.6677 25.3738 10.2418 25.451C9.81593 25.5283 9.42294 25.7313 9.11352 26.0339L9.03475 26.1127C8.79089 26.3569 8.5013 26.5505 8.18254 26.6827C7.86378 26.8148 7.5221 26.8828 7.17704 26.8828C6.83198 26.8828 6.4903 26.8148 6.17154 26.6827C5.85278 26.5505 5.56319 26.3569 5.31933 26.1127C5.0752 25.8689 4.88153 25.5793 4.74939 25.2605C4.61725 24.9418 4.54924 24.6001 4.54924 24.255C4.54924 23.91 4.61725 23.5683 4.74939 23.2495C4.88153 22.9308 5.0752 22.6412 5.31933 22.3973L5.39811 22.3185C5.70077 22.0091 5.9038 21.6161 5.98103 21.1902C6.05825 20.7644 6.00611 20.3251 5.83135 19.9291C5.66493 19.5408 5.3886 19.2096 5.03637 18.9764C4.68414 18.7431 4.27139 18.6179 3.84892 18.6162H3.62574C2.92935 18.6162 2.26148 18.3396 1.76906 17.8472C1.27664 17.3548 1 16.6869 1 15.9905C1 15.2941 1.27664 14.6263 1.76906 14.1338C2.26148 13.6414 2.92935 13.3648 3.62574 13.3648H3.74389C4.17844 13.3546 4.59989 13.214 4.95344 12.9611C5.30698 12.7082 5.57628 12.3548 5.72632 11.9469C5.90109 11.5509 5.95322 11.1116 5.876 10.6858C5.79877 10.2599 5.59574 9.86688 5.29308 9.55746L5.2143 9.47869C4.97017 9.23483 4.7765 8.94524 4.64436 8.62648C4.51223 8.30772 4.44421 7.96604 4.44421 7.62098C4.44421 7.27592 4.51223 6.93424 4.64436 6.61548C4.7765 6.29672 4.97017 6.00713 5.2143 5.76327C5.45816 5.51914 5.74775 5.32547 6.06651 5.19333C6.38527 5.06119 6.72695 4.99318 7.07201 4.99318C7.41707 4.99318 7.75875 5.06119 8.07751 5.19333C8.39627 5.32547 8.68586 5.51914 8.92972 5.76327L9.00849 5.84205C9.31791 6.14471 9.7109 6.34774 10.1368 6.42496C10.5627 6.50219 11.0019 6.45005 11.3979 6.27529H11.5029C11.8912 6.10887 12.2224 5.83253 12.4557 5.4803C12.6889 5.12808 12.8141 4.71532 12.8158 4.29286V4.06967C12.8158 3.37329 13.0924 2.70542 13.5849 2.213C14.0773 1.72058 14.7452 1.44394 15.4415 1.44394C16.1379 1.44394 16.8058 1.72058 17.2982 2.213C17.7906 2.70542 18.0673 3.37329 18.0673 4.06967V4.18783C18.069 4.6103 18.1941 5.02305 18.4274 5.37528C18.6607 5.72751 18.9918 6.00384 19.3801 6.17026C19.7761 6.34502 20.2154 6.39716 20.6413 6.31994C21.0672 6.24271 21.4601 6.03968 21.7696 5.73702L21.8483 5.65824C22.0922 5.41411 22.3818 5.22044 22.7005 5.0883C23.0193 4.95616 23.361 4.88815 23.706 4.88815C24.0511 4.88815 24.3928 4.95616 24.7115 5.0883C25.0303 5.22044 25.3199 5.41411 25.5638 5.65824C25.8079 5.9021 26.0016 6.19169 26.1337 6.51045C26.2658 6.82921 26.3338 7.17089 26.3338 7.51595C26.3338 7.86101 26.2658 8.20269 26.1337 8.52145C26.0016 8.84021 25.8079 9.1298 25.5638 9.37366L25.485 9.45243C25.1823 9.76185 24.9793 10.1548 24.9021 10.5807C24.8248 11.0066 24.877 11.4459 25.0517 11.8419V11.9469C25.2182 12.3352 25.4945 12.6664 25.8467 12.8996C26.1989 13.1329 26.6117 13.2581 27.0342 13.2597H27.2574C27.9537 13.2597 28.6216 13.5364 29.114 14.0288C29.6064 14.5212 29.8831 15.1891 29.8831 15.8855C29.8831 16.5819 29.6064 17.2497 29.114 17.7422C28.6216 18.2346 27.9537 18.5112 27.2574 18.5112H27.1392C26.7167 18.5129 26.304 18.6381 25.9517 18.8713C25.5995 19.1046 25.3232 19.4358 25.1568 19.8241Z" stroke="white" stroke-width="1.5" stroke-linecap="round" stroke-linejoin="round"/>
</svg>
