<?xml version="1.0" encoding="utf-8"?>
<!-- Generator: Adobe Illustrator 27.8.1, SVG Export Plug-In . SVG Version: 6.00 Build 0)  -->
<svg version="1.1" id="Layer_1" xmlns="http://www.w3.org/2000/svg" xmlns:xlink="http://www.w3.org/1999/xlink" x="0px" y="0px"
	 viewBox="0 0 342 28" style="enable-background:new 0 0 342 28;" xml:space="preserve">
<style type="text/css">
	.st0{fill:#BE8171;}
	.st1{fill:#4D6771;}
</style>
<path class="st0" d="M53.7,6h178c4.4,0,8,3.6,8,8l0,0c0,4.4-3.6,8-8,8h-178c-4.4,0-8-3.6-8-8l0,0C45.7,9.6,49.3,6,53.7,6z"/>
<path class="st1" d="M38,6h125c4.4,0,8,3.6,8,8l0,0c0,4.4-3.6,8-8,8H38c-4.4,0-8-3.6-8-8l0,0C30,9.6,33.6,6,38,6z"/>
</svg>
